<svg xmlns="http://www.w3.org/2000/svg" viewBox="0 0 160 160" fill="none">
  <defs><linearGradient id="body" x1="34" y1="25" x2="125" y2="138" gradientUnits="userSpaceOnUse"><stop stop-color="#7C3AED"/><stop offset="1" stop-color="#21074F"/></linearGradient><linearGradient id="visor" x1="42" y1="71" x2="117" y2="71" gradientUnits="userSpaceOnUse"><stop stop-color="#C4B5FD"/><stop offset=".5" stop-color="#67E8F9"/><stop offset="1" stop-color="#A78BFA"/></linearGradient><filter id="glow" x="-50%" y="-50%" width="200%" height="200%"><feGaussianBlur stdDeviation="3" result="b"/><feMerge><feMergeNode in="b"/><feMergeNode in="SourceGraphic"/></feMerge></filter></defs>
  <circle cx="80" cy="80" r="70" fill="#F87171" opacity=".12"/><path d="M30 99c0-35 22-62 50-62s50 27 50 62v24c0 12-10 22-22 22H52c-12 0-22-10-22-22V99Z" fill="url(#body)"/><path d="M36 84c2-34 20-56 44-56 25 0 43 22 45 56" stroke="#C4B5FD" stroke-opacity=".45" stroke-width="8" stroke-linecap="round"/><path d="M36 74h18M106 74h18" stroke="#67E8F9" stroke-width="6" stroke-linecap="round"/><rect x="37" y="64" width="86" height="34" rx="17" fill="#10051F" stroke="#A78BFA" stroke-width="3"/><path d="M49 81h25M86 81h25" stroke="url(#visor)" stroke-width="8" stroke-linecap="round" filter="url(#glow)"/><path d="M61 120c10-9 28-9 38 0" stroke="#C4B5FD" stroke-opacity=".8" stroke-width="5" stroke-linecap="round"/><path d="m117 39 25 25m0-25-25 25" stroke="#F87171" stroke-width="7" stroke-linecap="round" filter="url(#glow)"/></svg>
